<svg xmlns="http://www.w3.org/2000/svg" fill="none" viewBox="0 0 226 169"><g id="empty illustration 1"><g id="Group 26795"><path id="Rectangle 5622" fill="#EAECF0" d="M187.532 0H43.277c-6.639 0-12.021 5.382-12.021 12.021v144.256c0 6.639 5.382 12.021 12.021 12.021h144.255c6.64 0 12.022-5.382 12.022-12.021V12.021C199.554 5.382 194.172 0 187.532 0Z"/><g id="Group 26784"><g id="Group" filter="url(#filter0_d_0_1)"><path id="Rectangle 5623" fill="#fff" d="M168.298 12.021H6.011A6.01 6.01 0 0 0 0 18.032v30.053a6.01 6.01 0 0 0 6.01 6.01h162.288a6.011 6.011 0 0 0 6.011-6.01V18.032c0-3.32-2.692-6.01-6.011-6.01Z"/></g><g id="Group 26775"><path id="Rectangle 5617" fill="#D0D5DD" d="M82.946 21.638H51.69a3.606 3.606 0 1 0 0 7.213h31.256a3.606 3.606 0 1 0 0-7.213Z"/><path id="Rectangle 5618" fill="#EAECF0" d="M104.584 37.266H51.69a3.606 3.606 0 1 0 0 7.212h52.894a3.606 3.606 0 1 0 0-7.212Z"/></g></g><g id="Group 26790"><path id="Rectangle 5624" fill="#98A2B3" d="M32.459 15.629H9.619a6.01 6.01 0 0 0-6.012 6.01v22.84a6.01 6.01 0 0 0 6.011 6.011h22.84a6.01 6.01 0 0 0 6.011-6.01V21.64a6.01 6.01 0 0 0-6.01-6.011Z"/><path id="Path 25917" fill="#fff" d="M18.299 37.003h2.404l.026-.926c0-1.216.767-1.534 1.852-1.877a5.206 5.206 0 0 0 3.781-4.999 4.99 4.99 0 0 0-5.236-5.157 5.385 5.385 0 0 0-5.501 5.53h2.486a3.026 3.026 0 0 1 3.017-3.097 2.535 2.535 0 0 1 2.671 2.75 2.739 2.739 0 0 1-2.01 2.566l-.872.346a3.507 3.507 0 0 0-2.645 3.94l.027.924Zm1.19 5.715a1.763 1.763 0 0 0 1.825-1.748 1.761 1.761 0 0 0-1.825-1.745 1.763 1.763 0 0 0-1.825 1.745 1.763 1.763 0 0 0 1.825 1.748Z"/></g><g id="Group 26794"><g id="Group_2" filter="url(#filter1_d_0_1)"><path id="Path 25918" fill="#fff" d="M57.702 63.713h162.287a6.01 6.01 0 0 1 6.011 6.01v30.054a6.007 6.007 0 0 1-6.011 6.01H57.702a6.01 6.01 0 0 1-6.01-6.01V69.724a6.01 6.01 0 0 1 6.01-6.011Z"/></g><g id="Group 26775_2"><path id="Rectangle 5617_2" fill="#D0D5DD" d="M134.637 73.33h-31.255a3.606 3.606 0 1 0 0 7.213h31.255a3.606 3.606 0 1 0 0-7.213Z"/><path id="Rectangle 5618_2" fill="#EAECF0" d="M156.275 88.957h-52.893a3.606 3.606 0 1 0 0 7.213h52.893a3.607 3.607 0 1 0 0-7.213Z"/></g><g id="Group 26791"><path id="Rectangle 5624_2" fill="#98A2B3" d="M84.148 67.32h-22.84a6.01 6.01 0 0 0-6.011 6.011v22.84a6.01 6.01 0 0 0 6.01 6.011h22.84a6.01 6.01 0 0 0 6.012-6.01V73.33a6.01 6.01 0 0 0-6.011-6.01Z"/><path id="Path 25917_2" fill="#fff" d="M69.988 88.695h2.404l.027-.926c0-1.217.767-1.534 1.851-1.878a5.206 5.206 0 0 0 3.782-4.998 4.992 4.992 0 0 0-5.237-5.157 5.386 5.386 0 0 0-5.5 5.53H69.8a3.025 3.025 0 0 1 3.017-3.097 2.533 2.533 0 0 1 2.67 2.75 2.739 2.739 0 0 1-2.009 2.566l-.873.346a3.507 3.507 0 0 0-2.644 3.94l.026.924Zm1.19 5.715a1.76 1.76 0 0 0 1.825-1.748 1.763 1.763 0 0 0-1.825-1.746 1.763 1.763 0 0 0-1.825 1.746 1.76 1.76 0 0 0 1.825 1.747Z"/></g></g><g id="Group 26793"><g id="Group_3" filter="url(#filter2_d_0_1)"><path id="Path 25919" fill="#fff" d="M6.01 115.404h162.288a6.011 6.011 0 0 1 6.011 6.011v30.053a6.011 6.011 0 0 1-6.011 6.011H6.011A6.008 6.008 0 0 1 0 151.468v-30.053a6.01 6.01 0 0 1 6.01-6.011Z"/></g><g id="Group 26775_3"><path id="Rectangle 5617_3" fill="#D0D5DD" d="M82.946 125.021H51.69a3.607 3.607 0 0 0 0 7.213h31.256a3.607 3.607 0 0 0 0-7.213Z"/><path id="Rectangle 5618_3" fill="#EAECF0" d="M104.584 140.648H51.69a3.607 3.607 0 0 0 0 7.213h52.894a3.606 3.606 0 0 0 0-7.213Z"/></g><g id="Group 26792"><path id="Rectangle 5624_3" fill="#98A2B3" d="M32.459 119.012H9.619a6.01 6.01 0 0 0-6.012 6.01v22.841a6.01 6.01 0 0 0 6.011 6.01h22.84a6.01 6.01 0 0 0 6.011-6.01v-22.841a6.01 6.01 0 0 0-6.01-6.01Z"/><path id="Path 25917_3" fill="#fff" d="M18.299 140.386h2.404l.026-.926c0-1.216.767-1.534 1.852-1.877a5.21 5.21 0 0 0 3.781-4.999 4.993 4.993 0 0 0-5.236-5.157 5.395 5.395 0 0 0-3.936 1.586 5.383 5.383 0 0 0-1.565 3.944h2.486a3.027 3.027 0 0 1 3.017-3.097 2.533 2.533 0 0 1 2.671 2.751 2.74 2.74 0 0 1-2.01 2.565l-.872.346a3.506 3.506 0 0 0-2.645 3.941l.027.923Zm1.19 5.715a1.767 1.767 0 0 0 1.68-1.063c.094-.217.143-.449.145-.685a1.763 1.763 0 0 0-1.825-1.745 1.777 1.777 0 0 0-1.28.487 1.766 1.766 0 0 0-.545 1.258 1.765 1.765 0 0 0 1.134 1.633c.22.084.455.123.69.115Z"/></g></g></g></g><defs><filter id="filter0_d_0_1" width="184.309" height="52.075" x="-2" y="10.021" color-interpolation-filters="sRGB" filterUnits="userSpaceOnUse"><feFlood flood-opacity="0" result="BackgroundImageFix"/><feColorMatrix in="SourceAlpha" result="hardAlpha" values="0 0 0 0 0 0 0 0 0 0 0 0 0 0 0 0 0 0 127 0"/><feOffset dx="3" dy="3"/><feGaussianBlur stdDeviation="2.5"/><feColorMatrix values="0 0 0 0 0.230539 0 0 0 0 0.370572 0 0 0 0 0.482993 0 0 0 0.1 0"/><feBlend in2="BackgroundImageFix" result="effect1_dropShadow_0_1"/><feBlend in="SourceGraphic" in2="effect1_dropShadow_0_1" result="shape"/></filter><filter id="filter1_d_0_1" width="184.309" height="52.075" x="49.691" y="61.713" color-interpolation-filters="sRGB" filterUnits="userSpaceOnUse"><feFlood flood-opacity="0" result="BackgroundImageFix"/><feColorMatrix in="SourceAlpha" result="hardAlpha" values="0 0 0 0 0 0 0 0 0 0 0 0 0 0 0 0 0 0 127 0"/><feOffset dx="3" dy="3"/><feGaussianBlur stdDeviation="2.5"/><feColorMatrix values="0 0 0 0 0.230539 0 0 0 0 0.370572 0 0 0 0 0.482993 0 0 0 0.1 0"/><feBlend in2="BackgroundImageFix" result="effect1_dropShadow_0_1"/><feBlend in="SourceGraphic" in2="effect1_dropShadow_0_1" result="shape"/></filter><filter id="filter2_d_0_1" width="184.309" height="52.075" x="-2" y="113.404" color-interpolation-filters="sRGB" filterUnits="userSpaceOnUse"><feFlood flood-opacity="0" result="BackgroundImageFix"/><feColorMatrix in="SourceAlpha" result="hardAlpha" values="0 0 0 0 0 0 0 0 0 0 0 0 0 0 0 0 0 0 127 0"/><feOffset dx="3" dy="3"/><feGaussianBlur stdDeviation="2.5"/><feColorMatrix values="0 0 0 0 0.230539 0 0 0 0 0.370572 0 0 0 0 0.482993 0 0 0 0.1 0"/><feBlend in2="BackgroundImageFix" result="effect1_dropShadow_0_1"/><feBlend in="SourceGraphic" in2="effect1_dropShadow_0_1" result="shape"/></filter></defs></svg>