<svg xmlns="http://www.w3.org/2000/svg" fill="none" viewBox="0 0 300 300"><g id="empty illustration 1"><g id="no content backup"><g id="分组 14"><g id="分组 4"><g id="分组 3 copy"><path id="路径" fill="url(#paint0_radial_0_1)" d="M298.752 256.684c7.235-14.319-13.444-85.915-156.829-85.915-103.496 0-150.997 58.602-140.495 88.301"/><mask id="mask0_0_1" width="300" height="90" x="0" y="170" maskUnits="userSpaceOnUse" style="mask-type:luminance"><path id="路径_2" fill="#fff" d="M298.752 256.684c7.235-14.319-13.444-85.915-156.829-85.915-103.496 0-150.997 58.602-140.495 88.301"/></mask><g mask="url(#mask0_0_1)"><ellipse id="椭圆形 copy 2" cx="119.807" cy="233.995" fill="url(#paint1_linear_0_1)" opacity=".672" rx="7.886" ry="4.38"/><ellipse id="椭圆形 copy 3" cx="200.293" cy="204.233" fill="url(#paint2_linear_0_1)" opacity=".256" rx="12.442" ry="6.833"/><ellipse id="椭圆形 copy 4" cx="58.703" cy="186.011" fill="url(#paint3_linear_0_1)" opacity=".73" rx="12.442" ry="6.833"/></g></g><g id="分组 7"><path id="路径 19" fill="url(#paint4_linear_0_1)" d="M116.885 186.647s30.511 14.347 42.615 19.853c9.588 4.361 58.956 18.313 64.838 14.347 5.881-3.966 18.866-14.85 14.579-22.307-4.287-7.457-26.832-20.846-37.615-22.803-10.782-1.956-41.614 6.937-41.614 6.937l-26.298 4.516-16.505-.543Z" opacity=".5"/><path id="矩形 copy 6备份" fill="#E2E7EC" d="m139.5 122.5-34 25 9.065-21.269 34.05-21.617L139.5 122.5Z"/><path id="矩形 copy 4" fill="#D8DFE6" d="M114 126.67 148.615 105v59.099l-31.73 22.247L114 126.67Z"/><path id="矩形 copy 5" fill="#E9EFF1" d="m148.615 105 53.077 12.417v59.121l-53.077-12.417V105Z"/><path id="矩形" fill="#E8EAEB" d="m114 126.667 54.231 12.674v59.121l-51.346-11.791L114 126.667Z"/><g id="矩形_2"><path id="Mask" fill="#D8DFE6" d="m167.076 139.362 34.616-21.67v59.1l-34.616 21.669v-59.099Z"/><mask id="mask1_0_1" width="35" height="82" x="167" y="117" maskUnits="userSpaceOnUse" style="mask-type:luminance"><path id="Mask_2" fill="#fff" d="m167.076 139.362 34.616-21.67v59.1l-34.616 21.669v-59.099Z"/></mask><g mask="url(#mask1_0_1)"><path id="矩形_3" fill="#C7D0D9" d="M179.934 112.767h10.879v90.619h-10.879z"/></g></g><path id="矩形 copy 6" fill="#E2E7EC" d="m182.642 156.923 34.05-21.617-15.566-17.614-34.05 21.617 15.566 17.614Z"/></g></g></g><g id="分组 2备份"><g id="编组"><path id="路径 10" fill="url(#paint5_linear_0_1)" d="M87.447 188.137 141 215.5l5-14.5-52.544-17.478-6.01 4.615Z" opacity=".5"/><path id="路径 7" fill="url(#paint6_linear_0_1)" d="m85.985 143.154 18.466 1.456-4.101 40.168s-.359.401-1.23.245c-.871-.156-1.785-.64-1.785-.64l-2.747-31.933S93 163.742 93.111 166.918c.083 2.394.901 5.313 1.34 7.811.376 2.149 1.17 7.286 1.17 7.286s-.938.428-1.436.524c-.498.097-1.137-.434-1.137-.434s-6.475-12.569-6.558-14.955c-.084-2.387-.505-23.996-.505-23.996Z"/><path id="路径 8" fill="#677285" d="M92.761 182.046s-.822 1.481-1.844 2.384c-1.022.903-3.038 1.981-3.498 2.471-.46.49.043 1.211.043 1.211l4.941-.172 3.948-3.341-.551-3.183-3.039.63Z"/><path id="路径 9" fill="#677285" d="m100.815 183.761 1.154 3.199s-1.895 1.468-4.512 1.876c-2.618.408-4.421-.219-4.421-.219s-.473-.952.418-1.359c.409-.187 1.326-.964 2.13-1.959.364-.449 1.733-1.416 1.733-1.416l3.498-.122Z"/></g><path id="路径 3" fill="#FDE7E6" d="M109.088 122.213s1.513 2.302 2.441 1.686c.928-.616 6.722-6.555 6.722-6.555s1.724-1.326 2.042-1.011c.319.315-.574 1.011-.574 1.011s1.88.185 2.468.185c.587 0 1.823.938 1.015 1.254-.808.316-3.943.394-3.943.394s-4.76 9.001-7.24 9.639c-2.481.639-5.898-2.971-5.898-2.971l2.967-3.632Z"/><path id="路径 4" fill="#FDE7E6" d="M84.904 122.378s-.992 2.032-1.891 1.544c-.9-.487-5.945-5.809-5.945-5.809s-1.68-1.029-2.092-.844c-.41.186.602.844.602.844s-2.472.201-2.937.388c-.465.187-1.007.76-.303 1.021.703.26 3.394.446 3.394.446s3.742 7.394 6.577 8.258c2.835.865 5.25-2.542 5.25-2.542l-2.655-3.306Z"/><g id="路径 12"><path id="Mask_3" fill="#FDE7E6" d="M94.083 116.155v-3.633s-1.884.095-2.65-1.166c-.765-1.261-.972-4.841-.972-4.841l.577-1.659 5.673-.24 2.98 2.54-1.387 2.451-.265.471 1.323 5.571-5.28.506Z"/><mask id="mask2_0_1" width="10" height="13" x="90" y="104" maskUnits="userSpaceOnUse" style="mask-type:luminance"><path id="Mask_4" fill="#fff" d="M94.083 116.155v-3.633s-1.884.095-2.65-1.166c-.765-1.261-.972-4.841-.972-4.841l.577-1.659 5.673-.24 2.98 2.54-1.387 2.451-.265.471 1.323 5.571-5.28.506Z"/></mask><g mask="url(#mask2_0_1)"><path id="路径 12_2" fill="url(#paint7_linear_0_1)" d="M97.773 109.07c-1.676 2.085-4.576 3.542-4.954 3.542-.377 0 2.109 2.616 2.109 2.616l2.023.927 2.87-.609 1.025-2.934-1.809-3.328s.413-2.299-1.264-.214Z"/></g></g><path id="路径 2" fill="url(#paint8_linear_0_1)" d="m83.7 123.837 2.787 3.756 1.778-1.878s-1.352 7.415-1.778 10.971c-.426 3.556-.505 7.098-.505 7.098s4.465 1.657 7.792 1.936c3.328.279 11.075-.439 11.075-.439l-1-20.872 2.902 2.694 3.407-3.934s-5.865-9.013-6.974-9.538c-1.109-.525-4.192 0-4.192 0s-2.188 2.589-3.075 2.625c-.887.036-2.855-2.625-2.855-2.625s-3.144-.502-4.058.525c-.915 1.027-5.305 9.681-5.305 9.681Z"/><path id="路径 6" fill="#4D364F" d="M90.462 106.556s.668-1.687 1.541-1.393c.826.278 1.541.94 2.57 1.251 1.027.31 1.14-1.086 1.838-.85.699.236.238 2.289.73 2.672.492.382.492-2.672 1.541-1.85 1.05.822-1.094 3.137-1.094 3.137s.275 1.422.363 1.519c.088.097.078-1.035.078-1.035s1.002-.385 1.429-2.12c.427-1.734.611-2.425 0-3.686-.612-1.26-.786-2.247-2.317-2.842-1.53-.595-2.692-.362-3.762 0-1.07.362-1.845 1.081-2.34 1.797-1.154 1.7-.577 3.4-.577 3.4Z"/></g><g id="编组 2"><g id="路径 28"><path id="蒙版" fill="#E8EAEB" fill-rule="evenodd" d="M193.616 62.06c-1.216.372-26.387 15.432-26.387 15.432l7.346.548 5.219 5.768s15.038-22.12 13.822-21.748Z" clip-rule="evenodd"/><mask id="mask3_0_1" width="27" height="22" x="167" y="62" maskUnits="userSpaceOnUse" style="mask-type:luminance"><path id="蒙版_2" fill="#fff" fill-rule="evenodd" d="M193.616 62.06c-1.216.372-26.387 15.432-26.387 15.432l7.346.548 5.219 5.768s15.038-22.12 13.822-21.748Z" clip-rule="evenodd"/></mask><g mask="url(#mask3_0_1)"><path id="路径 28_2" fill="#D8DFE6" fill-rule="evenodd" d="m174.575 78.04 19.041-15.98-13.822 21.748-5.219-5.768Z" clip-rule="evenodd"/></g></g><path id="路径 13" fill="#E8EAEB" fill-rule="evenodd" d="m189.836 79.511-8.827-.922 12.617-16.373-3.79 17.295Z" clip-rule="evenodd"/></g><path id="路径 5" fill="#C7D0D9" fill-rule="evenodd" d="M173.585 90.42a204.018 204.018 0 0 0 1.666-3.624l.912.408a199.22 199.22 0 0 1-1.674 3.643l-.904-.427Zm-3.592 7.12c.61-1.125 1.224-2.302 1.843-3.533l.894.45a130.288 130.288 0 0 1-1.858 3.56l-.879-.477Zm-1.961 3.464a76.996 76.996 0 0 1-2.11 3.367l.833.554a78.666 78.666 0 0 0 2.137-3.411l-.86-.51Zm-6.989 9.597a36.588 36.588 0 0 0 2.568-2.995l.791.612a37.64 37.64 0 0 1-2.639 3.078l-.72-.695Zm-2.936 2.584c-1.169.838-2.308 1.417-3.415 1.741l.281.96c1.222-.357 2.46-.987 3.716-1.888l-.582-.813Zm-10.468.106c1.1.887 2.218 1.467 3.356 1.748l-.239.971c-1.287-.317-2.535-.966-3.744-1.941l.627-.778Zm-2.696-2.84-.185-.247c-.805-1.083-1.39-2.112-1.763-3.083l-.933.358c.407 1.061 1.036 2.168 1.893 3.321.064.087.129.173.194.258l.794-.607Zm-.238-10.06c-1.081.892-1.775 1.916-2.059 3.059l-.97-.241c.338-1.363 1.155-2.567 2.392-3.589l.637.771Zm3.34-1.879a22.222 22.222 0 0 1 3.763-1.068l-.194-.981c-1.427.281-2.749.656-3.932 1.118l.363.931Zm11.592-1.64a37.459 37.459 0 0 0-3.948.065l-.07-.997a38.458 38.458 0 0 1 4.053-.068l-.035 1Zm3.981.35c1.341.191 2.637.453 3.862.78l.259-.966a34.037 34.037 0 0 0-3.98-.804l-.141.99Zm10.894 4.076c-.914-.744-2.03-1.412-3.318-1.993l.411-.912c1.363.615 2.553 1.327 3.539 2.129l-.632.776Zm2.384 3.003c.242.561.396 1.145.461 1.752.069.643.093 1.289.072 1.938l.999.032a14.825 14.825 0 0 0-.077-2.076 6.993 6.993 0 0 0-.536-2.041l-.919.395Zm-1.602 11.141a19.641 19.641 0 0 0 1.495-3.604l.959.285a20.77 20.77 0 0 1-1.57 3.787l-.884-.468Zm-2.117 3.343a37.204 37.204 0 0 1-2.509 3.047l.739.673a38.306 38.306 0 0 0 2.576-3.128l-.806-.592Zm-8.252 8.457a64.885 64.885 0 0 0 2.982-2.62l.683.73a66.325 66.325 0 0 1-3.027 2.661l-.638-.771Zm-3.152 2.477a99.766 99.766 0 0 1-3.235 2.319l.567.823a99.848 99.848 0 0 0 3.268-2.342l-.6-.8Zm-8.669 5.848c.71-.437 1.405-.873 2.084-1.308l.539.842c-.684.438-1.384.877-2.099 1.318l-.524-.852Z" clip-rule="evenodd"/></g></g><defs><linearGradient id="paint1_linear_0_1" x1="113.46" x2="115.863" y1="232.834" y2="237.972" gradientUnits="userSpaceOnUse"><stop stop-color="#E1E7EA"/><stop offset="1" stop-color="#D0D6DC"/></linearGradient><linearGradient id="paint2_linear_0_1" x1="189.846" x2="194.242" y1="203.594" y2="212.763" gradientUnits="userSpaceOnUse"><stop stop-color="#E1E7EA"/><stop offset="1" stop-color="#D0D6DC"/></linearGradient><linearGradient id="paint3_linear_0_1" x1="50.77" x2="53.258" y1="186.122" y2="196.031" gradientUnits="userSpaceOnUse"><stop stop-color="#FBFBFB"/><stop offset="1" stop-color="#D9DFE3"/></linearGradient><linearGradient id="paint4_linear_0_1" x1="112.401" x2="121.277" y1="191.622" y2="231.424" gradientUnits="userSpaceOnUse"><stop stop-color="#C4CDD1"/><stop offset="1" stop-color="#C6CFD3" stop-opacity=".01"/></linearGradient><linearGradient id="paint5_linear_0_1" x1="85.588" x2="95.884" y1="195.628" y2="222.499" gradientUnits="userSpaceOnUse"><stop stop-color="#C4CDD1"/><stop offset="1" stop-color="#C6CFD3" stop-opacity=".01"/></linearGradient><linearGradient id="paint6_linear_0_1" x1="105.786" x2="104.318" y1="184.851" y2="142.832" gradientUnits="userSpaceOnUse"><stop stop-color="#A1A7B8"/><stop offset="1" stop-color="#7B8195"/></linearGradient><linearGradient id="paint7_linear_0_1" x1="98.568" x2="98.568" y1="113.716" y2="110.196" gradientUnits="userSpaceOnUse"><stop stop-color="#FBD8D6"/><stop offset="1" stop-color="#EAC0BE" stop-opacity=".7"/></linearGradient><linearGradient id="paint8_linear_0_1" x1="70.314" x2="98.132" y1="128.175" y2="157.521" gradientUnits="userSpaceOnUse"><stop stop-color="#E5E9F0"/><stop offset="1" stop-color="#D2DAE8"/></linearGradient><radialGradient id="paint0_radial_0_1" cx="0" cy="0" r="1" gradientTransform="matrix(0 -51.3403 536.198 0 130.111 201.392)" gradientUnits="userSpaceOnUse"><stop stop-color="#EBEDF0" stop-opacity=".24"/><stop offset=".537" stop-color="#EBEDF0" stop-opacity=".846"/><stop offset="1" stop-color="#E0E4E7" stop-opacity=".01"/></radialGradient></defs></svg>