<svg xmlns="http://www.w3.org/2000/svg" fill="none" viewBox="0 0 200 222"><g id="empty illustration 1"><g id="Group 26780"><g id="Mask Group 1"><path id="Ellipse 652" fill="url(#paint0_linear_0_1)" d="M100 210.667c55.228 0 100-44.771 100-100 0-55.228-44.772-100-100-100S0 55.44 0 110.667c0 55.229 44.772 100 100 100Z"/><g id="Group" filter="url(#filter0_d_0_1)"><path id="Rectangle 5615" fill="#fff" d="M157.333 68H42.667A6.667 6.667 0 0 0 36 74.669v140a6.667 6.667 0 0 0 6.667 6.666h114.666a6.667 6.667 0 0 0 6.667-6.666v-140A6.667 6.667 0 0 0 157.333 68Z"/></g><g id="Group 26776"><path id="Rectangle 5617" fill="#D0D5DD" d="M86.667 88H52a4 4 0 1 0 0 8h34.667a4 4 0 0 0 0-8Z"/><path id="Rectangle 5618" fill="#EAECF0" d="M110.667 105.334H52a4 4 0 0 0 0 8h58.667a4 4 0 0 0 0-8Z"/></g><g id="Group 26777"><path id="Rectangle 5617_2" fill="#D0D5DD" d="M86.667 124.001H52a4 4 0 0 0 0 8h34.667a4 4 0 0 0 0-8Z"/><path id="Rectangle 5618_2" fill="#EAECF0" d="M110.667 141.334H52a4 4 0 0 0 0 8h58.667a4 4 0 0 0 0-8Z"/></g><g id="Group 26778"><path id="Rectangle 5617_3" fill="#D0D5DD" d="M86.667 160.001H52a4 4 0 0 0 0 8h34.667a4 4 0 0 0 0-8Z"/><path id="Rectangle 5618_3" fill="#EAECF0" d="M110.667 177.334H52a4 4 0 0 0 0 8h58.667a4 4 0 1 0 0-8Z"/></g></g><g id="Group 26779"><g id="Group_2" filter="url(#filter1_d_0_1)"><path id="Rectangle 5616" fill="#98A2B3" d="M157.333 0H42.667A6.667 6.667 0 0 0 36 6.667v40a6.667 6.667 0 0 0 6.667 6.666h114.666A6.667 6.667 0 0 0 164 46.667v-40A6.667 6.667 0 0 0 157.333 0Z"/></g><g id="Group 26775"><path id="Rectangle 5617_4" fill="#EAECF0" d="M86.667 14.667H52a4 4 0 1 0 0 8h34.667a4 4 0 0 0 0-8Z"/><path id="Rectangle 5618_4" fill="#fff" d="M110.667 32H52a4 4 0 1 0 0 8h58.667a4 4 0 0 0 0-8Z"/></g></g></g></g><defs><filter id="filter0_d_0_1" width="140" height="165.333" x="30" y="59.001" color-interpolation-filters="sRGB" filterUnits="userSpaceOnUse"><feFlood flood-opacity="0" result="BackgroundImageFix"/><feColorMatrix in="SourceAlpha" result="hardAlpha" values="0 0 0 0 0 0 0 0 0 0 0 0 0 0 0 0 0 0 127 0"/><feOffset dy="-3"/><feGaussianBlur stdDeviation="3"/><feColorMatrix values="0 0 0 0 0.788235 0 0 0 0 0.803922 0 0 0 0 0.85098 0 0 0 0.349 0"/><feBlend in2="BackgroundImageFix" result="effect1_dropShadow_0_1"/><feBlend in="SourceGraphic" in2="effect1_dropShadow_0_1" result="shape"/></filter><filter id="filter1_d_0_1" width="140" height="65.333" x="30" y="-9" color-interpolation-filters="sRGB" filterUnits="userSpaceOnUse"><feFlood flood-opacity="0" result="BackgroundImageFix"/><feColorMatrix in="SourceAlpha" result="hardAlpha" values="0 0 0 0 0 0 0 0 0 0 0 0 0 0 0 0 0 0 127 0"/><feOffset dy="-3"/><feGaussianBlur stdDeviation="3"/><feColorMatrix values="0 0 0 0 0.788235 0 0 0 0 0.803922 0 0 0 0 0.85098 0 0 0 0.349 0"/><feBlend in2="BackgroundImageFix" result="effect1_dropShadow_0_1"/><feBlend in="SourceGraphic" in2="effect1_dropShadow_0_1" result="shape"/></filter><linearGradient id="paint0_linear_0_1" x1="100" x2="100" y1="10.667" y2="210.667" gradientUnits="userSpaceOnUse"><stop stop-color="#EAECF0"/><stop offset="1" stop-color="#EAECF0"/></linearGradient></defs></svg>