<svg xmlns="http://www.w3.org/2000/svg" fill="none" viewBox="0 0 249 274"><g id="empty illustration 2"><g id="Artwork"><path id="Rectangle 27 Copy 2" fill="#8E99A3" fill-rule="evenodd" d="m112.48 102.325 102.596 28.191v98.644L112.48 184.961v-82.636Z" clip-rule="evenodd"/><path id="Rectangle 27 Copy 3" fill="#A0AAB5" fill-rule="evenodd" d="m112.598 102.421-83.795 23.416V229.49l83.795-44.865v-82.204Z" clip-rule="evenodd"/><g id="fly"><path id="path" stroke="url(#paint0_linear_0_1)" stroke-dasharray="6 7" stroke-width="3" d="M166.566 222.094c-23.155-6.777-63.819-6.172-79.09-45.784-13.996-36.304 37.633-71.244 52.078-55.947 10.235 10.84-2.884 26.472-21.09 24.716-20.492-1.976-32.604-20.302-28.564-40.013 8.015-39.1 69.636-64.969 72.233-66.77"/><g id="bee"><ellipse id="Oval" cx="159.168" cy="16.352" fill="#CED8E5" opacity=".4" rx="9.985" ry="13.141" transform="rotate(-45 159.168 16.352)"/><ellipse id="Oval Copy" cx="184.584" cy="40.822" fill="#CED8E5" opacity=".4" rx="9.985" ry="13.141" transform="rotate(135 184.584 40.822)"/><g id="Rectangle 4"><path id="Mask" fill="#A8B7C5" d="M163.68 27.142a8.1 8.1 0 0 1 8.1-8.1h9.146v9.12a8.1 8.1 0 0 1-8.1 8.1h-9.146v-9.12Z"/><mask id="mask0_0_1" width="18" height="18" x="163" y="19" maskUnits="userSpaceOnUse" style="mask-type:luminance"><path id="Mask_2" fill="#fff" d="M163.68 27.142a8.1 8.1 0 0 1 8.1-8.1h9.146v9.12a8.1 8.1 0 0 1-8.1 8.1h-9.146v-9.12Z"/></mask><g fill="#DDE5F2" mask="url(#mask0_0_1)"><path id="Rectangle 4_2" d="M160.66 23.831h2.723v19.938h-2.723z" transform="rotate(-45 160.66 23.831)"/><path id="Rectangle 4 Copy" fill-rule="evenodd" d="m166.105 19.3 1.926-1.925 14.098 14.098-1.926 1.925L166.105 19.3Z" clip-rule="evenodd"/></g></g><path id="Path 7 Copy" stroke="#8696C5" stroke-width=".9" d="m190.184 14.729 6.624-1.577"/><path id="Path 7" stroke="#8696C5" stroke-width=".9" d="m187.461 12.01 2.549-6.557"/><ellipse id="Oval 4" cx="183.648" cy="17.23" fill="#8B9AA8" rx="7.262" ry="7.25"/></g></g><path id="Rectangle 27" fill="#DAE2EC" fill-rule="evenodd" d="m28.8 126.023 102.596 32.557v114.965L28.801 229.346V126.023Z" clip-rule="evenodd"/><path id="Rectangle 27 Copy" fill="#C5D0D9" fill-rule="evenodd" d="m215.592 130.389-85.65 28.191v114.965l85.65-44.199v-98.957Z" clip-rule="evenodd"/><path id="Path 17 Copy" fill="#DAE2EC" fill-rule="evenodd" d="m215.349 130.322 33.11 44.311-87.868 34.627-30.347-50.897 85.105-28.041Z" clip-rule="evenodd"/><path id="Path 17" fill="#C5D0D9" fill-rule="evenodd" d="M28.679 125.784 0 170.522l101.076 38.737 29.531-50.958-101.928-32.517Z" clip-rule="evenodd"/></g></g><defs><linearGradient id="paint0_linear_0_1" x1="103.559" x2="31.135" y1="16.37" y2="51.472" gradientUnits="userSpaceOnUse"><stop stop-color="#95ABC2"/><stop offset="1" stop-color="#fff"/></linearGradient></defs></svg>