<svg xmlns="http://www.w3.org/2000/svg" fill="none" viewBox="0 0 219 182"><g id="empty illustration 1"><g id="Group 26808"><path id="Ellipse 653" fill="#EAECF0" d="M90.746 181.492c50.117 0 90.746-40.629 90.746-90.746C181.492 40.628 140.863 0 90.746 0 40.628 0 0 40.628 0 90.746c0 50.117 40.628 90.746 90.746 90.746Z"/><g id="Mask Group 3"><g id="Group 26805"><g id="Group" filter="url(#filter0_d_0_1)"><path id="Path 25918" fill="#fff" d="M49.608 41.14h163.343a6.052 6.052 0 0 1 6.05 6.05v30.248a6.052 6.052 0 0 1-6.05 6.05H49.608a6.05 6.05 0 0 1-6.05-6.05V47.189a6.05 6.05 0 0 1 6.05-6.05Z"/></g><g id="Group 26775"><path id="Rectangle 5617" fill="#D0D5DD" d="M127.043 50.819H95.585a3.63 3.63 0 0 0 0 7.26h31.458a3.63 3.63 0 1 0 0-7.26Z"/><path id="Rectangle 5618" fill="#EAECF0" d="M148.822 66.548H95.585a3.63 3.63 0 1 0 0 7.26h53.237a3.63 3.63 0 1 0 0-7.26Z"/></g><g id="Group 26804"><path id="Rectangle 5624" fill="#98A2B3" d="M82.276 62.313c0-9.689-7.855-17.544-17.544-17.544-9.69 0-17.544 7.855-17.544 17.544 0 9.69 7.854 17.545 17.544 17.545 9.69 0 17.544-7.855 17.544-17.545Z"/><g id="bx-search"><path id="Path 25920" fill="#fff" d="M63.641 67.993c1.502 0 2.961-.503 4.144-1.428l3.721 3.72 1.197-1.196-3.722-3.722a6.763 6.763 0 1 0-5.34 2.626Zm0-11.85a5.082 5.082 0 1 1 0 10.164 5.082 5.082 0 0 1 0-10.165Z"/></g></g></g><g id="Group 26784"><g id="Group_2" filter="url(#filter1_d_0_1)"><path id="Rectangle 5623" fill="#fff" d="M194.8 95.585H31.458a6.05 6.05 0 0 0-6.05 6.05v30.249a6.05 6.05 0 0 0 6.05 6.05H194.8a6.05 6.05 0 0 0 6.05-6.05v-30.249a6.05 6.05 0 0 0-6.05-6.05Z"/></g><g id="Group 26775_2"><path id="Rectangle 5617_2" fill="#D0D5DD" d="M108.895 105.265H77.436a3.63 3.63 0 1 0 0 7.26h31.459a3.63 3.63 0 0 0 0-7.26Z"/><path id="Rectangle 5618_2" fill="#EAECF0" d="M130.674 120.994H77.436a3.63 3.63 0 1 0 0 7.26h53.238a3.63 3.63 0 1 0 0-7.26Z"/></g><g id="Group 26807"><path id="Rectangle 5624_2" fill="#98A2B3" d="M64.126 116.76c0-9.69-7.855-17.545-17.545-17.545-9.69 0-17.544 7.855-17.544 17.545 0 9.689 7.855 17.544 17.544 17.544 9.69 0 17.544-7.855 17.544-17.544Z"/><g id="bx-search_2"><path id="Path 25920_2" fill="#fff" d="M45.491 122.439a6.73 6.73 0 0 0 4.144-1.428l3.72 3.721 1.197-1.197-3.721-3.722a6.762 6.762 0 0 0-3.91-10.746 6.768 6.768 0 0 0-7.553 3.714 6.763 6.763 0 0 0 6.123 9.658Zm0-11.85a5.084 5.084 0 0 1 4.695 3.137 5.08 5.08 0 1 1-4.695-3.137Z"/></g></g></g></g></g></g><defs><filter id="filter0_d_0_1" width="185.441" height="52.348" x="41.559" y="39.139" color-interpolation-filters="sRGB" filterUnits="userSpaceOnUse"><feFlood flood-opacity="0" result="BackgroundImageFix"/><feColorMatrix in="SourceAlpha" result="hardAlpha" values="0 0 0 0 0 0 0 0 0 0 0 0 0 0 0 0 0 0 127 0"/><feOffset dx="3" dy="3"/><feGaussianBlur stdDeviation="2.5"/><feColorMatrix values="0 0 0 0 0.230539 0 0 0 0 0.370572 0 0 0 0 0.482993 0 0 0 0.1 0"/><feBlend in2="BackgroundImageFix" result="effect1_dropShadow_0_1"/><feBlend in="SourceGraphic" in2="effect1_dropShadow_0_1" result="shape"/></filter><filter id="filter1_d_0_1" width="185.441" height="52.348" x="23.408" y="93.585" color-interpolation-filters="sRGB" filterUnits="userSpaceOnUse"><feFlood flood-opacity="0" result="BackgroundImageFix"/><feColorMatrix in="SourceAlpha" result="hardAlpha" values="0 0 0 0 0 0 0 0 0 0 0 0 0 0 0 0 0 0 127 0"/><feOffset dx="3" dy="3"/><feGaussianBlur stdDeviation="2.5"/><feColorMatrix values="0 0 0 0 0.230539 0 0 0 0 0.370572 0 0 0 0 0.482993 0 0 0 0.1 0"/><feBlend in2="BackgroundImageFix" result="effect1_dropShadow_0_1"/><feBlend in="SourceGraphic" in2="effect1_dropShadow_0_1" result="shape"/></filter></defs></svg>